<?xml version="1.0" encoding="UTF-8" standalone="no"?>
<!-- Generator: Adobe Illustrator 26.0.3, SVG Export Plug-In . SVG Version: 6.00 Build 0)  -->

<svg
   version="1.0"
   id="svg1"
   x="0px"
   y="0px"
   viewBox="0 0 235.00001 94.999998"
   width="235"
   height="95"
   xmlns="http://www.w3.org/2000/svg"
   xmlns:svg="http://www.w3.org/2000/svg">
<path
   d="M 48.105664,18.699991 H 18.021223 c -1.154978,0 -2.089957,0.927126 -2.089957,2.082105 0,0 0,0.0078 0,0.0078 v 6.851295 h 34.272215 v -6.851297 c 0,-1.154985 -0.927126,-2.089964 -2.082105,-2.089964 -0.0078,0 -0.0078,0 -0.01575,0 z"
   id="path1"
   style="fill:#555555;fill-opacity:1;stroke-width:0.0785698" />
<path
   d="m 51.649169,22.887772 h -37.16359 c -1.665687,0 -3.024944,1.351398 -3.024944,3.017084 0,0 0,0.0078 0,0.0078 v 2.380668 h 43.22133 v -2.380666 c 0,-1.665686 -1.351405,-3.024944 -3.017084,-3.024944 -0.0078,0 -0.0078,0 -0.01568,0 z"
   id="path2"
   style="fill:#5d5d5d;fill-opacity:1;stroke-width:0.0785698" />
<path
   d="M 56.009796,27.17769 H 10.124944 C 8.4592571,27.17769 7.1,28.529094 7.1,30.194773 c 0,0 0,0.0078 0,0.0078 v 43.087769 c 0,1.673539 1.3592571,3.032796 3.040656,3.040656 h 45.853428 c 1.673539,0 3.032803,-1.359264 3.040656,-3.040656 v -43.08773 c 0,-1.665686 -1.351397,-3.017084 -3.024944,-3.024944 z"
   id="path3"
   style="fill:#666666;fill-opacity:1;stroke-width:0.0785698" />
<path
   d="m 22.421143,31.616895 c -3.182084,0 -5.767037,2.584947 -5.759177,5.76703 0.0078,3.182085 2.584953,5.767038 5.76703,5.759178 3.182085,0 5.759178,-2.584953 5.759178,-5.76703 0.0078,-3.174231 -2.577093,-5.759178 -5.767031,-5.759178 z m 0,9.499109 c -2.066391,0 -3.74779,-1.673547 -3.74779,-3.747791 0,-2.066392 1.673539,-3.747783 3.74779,-3.747783 2.066392,0 3.747784,1.673539 3.747784,3.747783 0,2.074244 -1.673539,3.747791 -3.747784,3.747791 0.0078,0 0.0078,0 0,0 z"
   id="path4"
   style="fill:#9e9e9e;fill-opacity:1;stroke-width:0.0785698" />
<path
   d="m 24.589672,42.522406 h -4.274205 v 11.691208 h 4.274205 z"
   id="path5"
   style="fill:#9e9e9e;fill-opacity:1;stroke-width:0.0785698" />
<path
   d="m 49.810629,37.462496 c 0,-3.182084 -2.584953,-5.767037 -5.767031,-5.767037 -3.182084,0 -5.767037,2.584953 -5.767037,5.767037 0,2.388527 1.46926,4.525629 3.692786,5.382045 v 3.959922 l -21.65388,7.149868 H 20.2762 v 7.33058 c -2.946372,1.194264 -4.360634,4.549202 -3.166371,7.495574 1.194264,2.946373 4.549202,4.360629 7.495574,3.166365 2.946373,-1.194263 4.360635,-4.549202 3.166372,-7.495574 -0.573559,-1.422115 -1.697112,-2.545668 -3.103514,-3.142799 v -4.541342 l 21.536025,-7.118435 -0.0471,-0.08643 h 0.0471 v -6.772727 c 2.176387,-0.864268 3.606362,-2.977806 3.606362,-5.327047 z m -23.641702,29.18874 c 0,2.066392 -1.673539,3.747791 -3.747784,3.747791 -2.074251,0 -3.74779,-1.673539 -3.74779,-3.747791 0,-2.066392 1.673539,-3.747784 3.74779,-3.747784 0,0 0,0 0,0 2.074245,0.0078 3.747784,1.681392 3.747784,3.747784 z M 44.043598,41.194567 c -2.066391,0 -3.74779,-1.673539 -3.74779,-3.747784 0,-2.066391 1.673539,-3.747783 3.74779,-3.747783 2.066385,0 3.747784,1.673539 3.747784,3.747783 0,0 0,0 0,0 0,2.074245 -1.681399,3.747784 -3.747784,3.747784 z"
   id="path6"
   style="fill:#b6b6b6;fill-opacity:1;stroke-width:0.0785698" />
<path
   style="font-weight:bold;font-size:27.8167px;font-family:'Segoe UI';-inkscape-font-specification:'Segoe UI, Bold';fill:#333333;stroke-width:0.104312"
   d="M 86.625298,59.709473 H 81.844303 L 80.4589,55.376696 h -6.92701 l -1.371819,4.332777 H 67.40624 L 74.496239,40.23235 h 5.202049 z m -7.171493,-7.701206 -2.091686,-6.546704 q -0.2309,-0.733448 -0.325977,-1.752126 h -0.108659 q -0.06791,0.85569 -0.339559,1.697797 l -2.11885,6.601033 z m 20.196988,7.701206 H 87.168592 v -1.779291 l 6.98134,-8.964366 h -6.288639 v -3.164693 h 11.735171 v 2.11885 l -6.614616,8.624807 h 6.668945 z m 15.524657,0 H 110.897 v -2.118851 h -0.0679 q -1.58914,2.45841 -4.25128,2.45841 -4.83533,0 -4.83533,-5.854003 v -8.393906 h 4.27845 v 8.0136 q 0,2.947375 2.33617,2.947375 1.1545,0 1.8472,-0.80136 0.6927,-0.814943 0.6927,-2.200345 v -7.95927 h 4.27845 z m 12.68593,-10.037374 q -0.77419,-0.421054 -1.80645,-0.421054 -1.39899,0 -2.18676,1.032261 -0.78778,1.018678 -0.78778,2.784386 v 6.641781 h -4.29203 v -13.90835 h 4.29203 v 2.580651 h 0.0543 q 1.01868,-2.825134 3.66724,-2.825134 0.67912,0 1.05942,0.162988 z m 14.38373,4.305612 h -9.07302 q 0.21732,3.028869 3.81665,3.028869 2.29542,0 4.03396,-1.086589 v 3.096781 q -1.9287,1.03226 -5.0119,1.03226 -3.36842,0 -5.22921,-1.860785 -1.86078,-1.874368 -1.86078,-5.215631 0,-3.463505 2.01019,-5.487279 2.01019,-2.023774 4.94398,-2.023774 3.04245,0 4.6995,1.806456 1.67063,1.806456 1.67063,4.903237 z m -3.97963,-2.63498 q 0,-2.988122 -2.41766,-2.988122 -1.03226,0 -1.79288,0.855689 -0.74703,0.85569 -0.91002,2.132433 z m 30.96781,8.366742 h -5.03906 l -3.02887,-5.011896 q -0.33956,-0.57046 -0.65196,-1.018678 -0.31239,-0.448218 -0.63837,-0.760613 -0.31239,-0.325977 -0.66553,-0.488965 -0.33956,-0.176571 -0.74703,-0.176571 h -1.18167 v 7.456723 h -4.38711 V 40.23235 h 6.95418 q 7.09,0 7.09,5.297125 0,1.018678 -0.3124,1.88795 -0.31239,0.85569 -0.88285,1.548391 -0.57046,0.692701 -1.3854,1.195248 -0.80136,0.502548 -1.79288,0.787778 v 0.05433 q 0.43464,0.135823 0.84211,0.448218 0.40747,0.298812 0.78778,0.706283 0.3803,0.407471 0.71986,0.882854 0.35314,0.461801 0.63837,0.910019 z M 157.2808,43.519284 v 5.419367 h 1.90153 q 1.41257,0 2.26826,-0.814943 0.86927,-0.828524 0.86927,-2.050938 0,-2.553486 -3.05603,-2.553486 z m 25.15456,10.458427 h -9.07303 q 0.21732,3.028869 3.81665,3.028869 2.29542,0 4.03396,-1.086589 v 3.096781 q -1.92869,1.03226 -5.01189,1.03226 -3.36843,0 -5.22922,-1.860785 -1.86078,-1.874368 -1.86078,-5.215631 0,-3.463505 2.01019,-5.487279 2.01019,-2.023774 4.94398,-2.023774 3.04246,0 4.6995,1.806456 1.67064,1.806456 1.67064,4.903237 z m -3.97964,-2.63498 q 0,-2.988122 -2.41766,-2.988122 -1.03226,0 -1.79287,0.855689 -0.74703,0.85569 -0.91002,2.132433 z m 10.87948,6.750439 h -0.0543 v 8.0136 h -4.29203 V 45.801123 h 4.29203 v 2.091685 h 0.0543 q 1.58914,-2.431245 4.4686,-2.431245 2.7029,0 4.16979,1.860785 1.48048,1.847203 1.48048,5.039061 0,3.477087 -1.72496,5.582355 -1.71138,2.105268 -4.56368,2.105268 -2.51274,0 -3.83023,-1.955862 z m -0.12224,-5.704596 v 1.113754 q 0,1.439732 0.76061,2.349751 0.76062,0.910019 1.99661,0.910019 1.4669,0 2.26826,-1.127337 0.81494,-1.14092 0.81494,-3.219023 0,-3.66724 -2.8523,-3.66724 -1.31749,0 -2.15959,1.005095 -0.82853,0.991513 -0.82853,2.634981 z m 19.6537,7.660458 q -3.47709,0 -5.4737,-1.942279 -1.98302,-1.955862 -1.98302,-5.297126 0,-3.449923 2.06452,-5.392202 2.06452,-1.955862 5.58235,-1.955862 3.46351,0 5.43295,1.955862 1.96945,1.942279 1.96945,5.147719 0,3.463506 -2.03736,5.473697 -2.02377,2.010191 -5.55519,2.010191 z m 0.10866,-11.300534 q -1.52123,0 -2.36333,1.045842 -0.84211,1.045843 -0.84211,2.960958 0,4.0068 3.2326,4.0068 3.0832,0 3.0832,-4.115459 0,-3.898141 -3.11036,-3.898141 z m 9.35825,10.594251 v -3.477088 q 1.05943,0.638372 2.10527,0.950766 1.05942,0.312395 1.99661,0.312395 1.14092,0 1.79287,-0.312395 0.66554,-0.312394 0.66554,-0.950766 0,-0.407471 -0.29882,-0.679119 -0.29881,-0.271647 -0.77419,-0.475383 -0.4618,-0.203735 -1.01868,-0.366724 -0.55688,-0.162988 -1.07301,-0.366724 -0.82852,-0.312394 -1.46689,-0.665536 -0.62479,-0.366724 -1.05943,-0.842107 -0.42105,-0.475383 -0.65195,-1.100172 -0.21732,-0.62479 -0.21732,-1.480479 0,-1.168084 0.50255,-2.010191 0.51613,-0.842107 1.35824,-1.37182 0.85569,-0.543295 1.94227,-0.787778 1.10018,-0.258065 2.28184,-0.258065 0.9236,0 1.87437,0.149406 0.95077,0.135824 1.87437,0.407472 v 3.314099 q -0.81494,-0.475383 -1.75213,-0.706284 -0.9236,-0.244482 -1.82004,-0.244482 -0.42105,0 -0.80136,0.08149 -0.36672,0.06791 -0.65195,0.217318 -0.28523,0.135823 -0.44822,0.366724 -0.16299,0.217318 -0.16299,0.502548 0,0.380306 0.24449,0.651954 0.24448,0.271647 0.63837,0.475383 0.39389,0.190153 0.86927,0.353141 0.48897,0.149406 0.96435,0.312395 0.85569,0.298812 1.54839,0.651954 0.6927,0.353141 1.18167,0.828525 0.50254,0.475383 0.76061,1.113754 0.27165,0.638372 0.27165,1.521226 0,1.235996 -0.5433,2.11885 -0.52971,0.869272 -1.42615,1.426149 -0.88285,0.543295 -2.05094,0.787778 -1.1545,0.258065 -2.40408,0.258065 -2.29542,0 -4.25128,-0.706283 z"
   id="text6"
   aria-label="Azure Repos" /></svg>
