<?xml version="1.0" encoding="UTF-8" standalone="no"?>
<!-- Created with Inkscape (http://www.inkscape.org/) -->

<svg
   width="96.753845"
   height="90.167923"
   viewBox="0 0 25.599454 23.85693"
   version="1.1"
   id="svg1"
   xmlns="http://www.w3.org/2000/svg"
   xmlns:svg="http://www.w3.org/2000/svg">
  <defs
     id="defs1" />
  <g
     id="layer9"
     style="display:inline"
     transform="translate(-18.28881,-0.56906616)">
    <g
       id="g4"
       transform="matrix(0.93563227,0,0,0.93563227,4.7284453,-7.9355343)">
      <path
         d="M 16.904303,32.995105 V 33.5381 q -0.26274,0.160563 -0.729833,0.160563 -1.024685,0 -1.024685,-1.100587 0,-0.487528 0.280256,-0.7853 0.280256,-0.300691 0.805735,-0.300691 0.408706,0 0.662688,0.166402 v 0.572189 l -0.321126,-0.02627 -0.04671,-0.286095 q -0.0088,-0.04087 -0.04671,-0.05255 -0.110934,-0.03503 -0.25982,-0.03503 -0.283175,0 -0.446658,0.192675 -0.160563,0.189757 -0.160563,0.554673 0,0.379513 0.154725,0.575108 0.154724,0.192676 0.43206,0.192676 0.169322,0 0.291933,-0.03795 0.02627,-0.0058 0.03503,-0.01752 0.01168,-0.01168 0.01752,-0.04379 l 0.04379,-0.271498 z m 0.931265,0.703558 q -0.382432,0 -0.56635,-0.210191 -0.183917,-0.213111 -0.183917,-0.575108 0,-0.373675 0.198514,-0.586786 0.198514,-0.213111 0.589705,-0.213111 0.385351,0 0.56635,0.207273 0.183917,0.204353 0.183917,0.560511 0,0.382432 -0.198514,0.601382 -0.198514,0.21603 -0.589705,0.21603 z m 0.02044,-0.306529 q 0.306529,0 0.306529,-0.496286 0,-0.251063 -0.07298,-0.359078 -0.07298,-0.108015 -0.221869,-0.108015 -0.321126,0 -0.321126,0.470012 0,0.493367 0.309449,0.493367 z m 2.586524,0.271497 h -0.542995 l -0.02919,-0.163482 -0.02044,-0.0029 q -0.207272,0.201433 -0.47877,0.201433 -0.56635,0 -0.56635,-0.776541 0,-0.411626 0.17516,-0.61014 0.17516,-0.198515 0.443738,-0.198515 0.221869,0 0.411626,0.140128 v -0.443738 q 0,-0.04671 -0.03795,-0.05839 l -0.160563,-0.05547 0.03211,-0.236466 h 0.586785 v 1.897565 q 0,0.03211 0.0058,0.04379 0.0088,0.0088 0.04087,0.01168 l 0.140128,0.02043 z m -0.624736,-0.43498 v -0.688962 q -0.128451,-0.08758 -0.251063,-0.08758 -0.154724,0 -0.227708,0.125531 -0.07298,0.125531 -0.07298,0.335723 0,0.440818 0.265659,0.440818 0.140128,0 0.286095,-0.125531 z m 1.970549,0.03211 0.108015,0.289014 q -0.30653,0.148885 -0.598463,0.148885 -0.399948,0 -0.578027,-0.21603 -0.178079,-0.21895 -0.178079,-0.589705 0,-0.379513 0.201434,-0.578027 0.204353,-0.201434 0.52256,-0.201434 0.30361,0 0.472931,0.172241 0.169321,0.169321 0.169321,0.534237 0,0.07882 -0.0058,0.195595 H 21.00888 q 0.02335,0.344481 0.344481,0.344481 0.166401,0 0.43498,-0.09926 z m -0.776542,-0.52256 h 0.464173 q -0.0029,-0.309449 -0.218949,-0.309449 -0.221869,0 -0.245224,0.309449 z m 3.573258,0.925427 h -0.636414 l -0.26274,-0.732751 q -0.02627,-0.0759 -0.06423,-0.102177 -0.03503,-0.02919 -0.108015,-0.02919 h -0.137208 v 0.548834 q 0,0.03503 0.0058,0.04671 0.0088,0.0088 0.04087,0.01168 l 0.204353,0.02335 v 0.233546 h -0.931266 v -0.233546 l 0.183917,-0.02043 q 0.02919,-0.0029 0.03795,-0.01168 0.0088,-0.01168 0.0088,-0.04671 v -1.491777 q 0,-0.03211 -0.0088,-0.04379 -0.0088,-0.01168 -0.03795,-0.0146 l -0.183917,-0.02043 V 31.55004 h 0.995491 q 0.364916,0 0.52256,0.163482 0.157644,0.163483 0.157644,0.420384 0,0.39119 -0.385352,0.560511 0.09926,0.04671 0.169322,0.233546 l 0.160563,0.417464 q 0.02627,0.04671 0.08758,0.05547 l 0.180998,0.02919 z m -1.208602,-1.167732 h 0.134289 q 0.186837,0 0.291933,-0.07006 0.105096,-0.07006 0.105096,-0.265659 0,-0.163483 -0.09342,-0.227708 -0.0905,-0.06423 -0.291933,-0.06423 h -0.145966 z m 2.510623,0.764865 0.108016,0.289014 q -0.30653,0.148885 -0.598463,0.148885 -0.399948,0 -0.578027,-0.21603 -0.178079,-0.21895 -0.178079,-0.589705 0,-0.379513 0.201433,-0.578027 0.204353,-0.201434 0.52256,-0.201434 0.303611,0 0.472932,0.172241 0.169321,0.169321 0.169321,0.534237 0,0.07882 -0.0058,0.195595 H 25.10766 q 0.02335,0.344481 0.344481,0.344481 0.166402,0 0.43498,-0.09926 z m -0.776541,-0.52256 h 0.464173 q -0.0029,-0.309449 -0.21895,-0.309449 -0.221869,0 -0.245223,0.309449 z m 2.093156,0.925427 H 26.69281 l -0.464173,-1.208602 q -0.0146,-0.03795 -0.06131,-0.04963 l -0.122612,-0.02627 0.04671,-0.236465 h 0.791139 v 0.236465 l -0.186837,0.02336 0.297771,0.832009 h 0.02044 l 0.309449,-0.832009 -0.189757,-0.02336 0.03795,-0.236465 h 0.674366 v 0.236465 l -0.105096,0.01752 q -0.05839,0.0146 -0.07298,0.04963 z m 1.290343,-2.207013 q 0.07006,0.06423 0.07006,0.189756 0,0.125532 -0.07006,0.195596 -0.07006,0.06714 -0.195595,0.06714 -0.125532,0 -0.195595,-0.06714 -0.06715,-0.07006 -0.06715,-0.195596 0,-0.125531 0.06715,-0.189756 0.07006,-0.06715 0.195595,-0.06715 0.12845,0 0.195595,0.06715 z m 0.25982,2.207013 h -0.832009 v -0.230627 l 0.148886,-0.02043 q 0.02919,-0.0029 0.03795,-0.0146 0.0088,-0.01168 0.0088,-0.04379 v -0.858283 q 0,-0.04963 -0.03795,-0.06131 l -0.157644,-0.05547 0.03211,-0.236465 h 0.604301 v 1.211521 q 0,0.03503 0.0058,0.04671 0.0088,0.0088 0.04087,0.01168 l 0.148886,0.02043 z m 1.357488,-0.402867 0.108016,0.289014 q -0.30653,0.148885 -0.598463,0.148885 -0.399948,0 -0.578027,-0.21603 -0.178079,-0.21895 -0.178079,-0.589705 0,-0.379513 0.201433,-0.578027 0.204353,-0.201434 0.52256,-0.201434 0.303611,0 0.472932,0.172241 0.169321,0.169321 0.169321,0.534237 0,0.07882 -0.0058,0.195595 h -0.893315 q 0.02335,0.344481 0.344481,0.344481 0.166402,0 0.43498,-0.09926 z m -0.776541,-0.52256 h 0.464173 q -0.0029,-0.309449 -0.21895,-0.309449 -0.221869,0 -0.245223,0.309449 z m 2.963121,0.925427 h -0.461255 l -0.227707,-0.977975 h -0.01752 l -0.230627,0.977975 h -0.52548 l -0.367835,-1.208602 q -0.01168,-0.03795 -0.06131,-0.04963 l -0.122612,-0.02627 0.04671,-0.236465 h 0.738591 v 0.242304 l -0.163483,0.01752 0.233547,0.820332 h 0.02043 l 0.25982,-1.042201 h 0.440819 l 0.251062,1.042201 h 0.01752 l 0.21895,-0.820332 -0.166402,-0.01752 0.03795,-0.242304 h 0.613059 v 0.236465 l -0.105096,0.02044 q -0.05547,0.0088 -0.07006,0.05839 z"
         id="text7"
         style="font-weight:bold;font-size:2.91933px;line-height:1.1;font-family:Adelle;-inkscape-font-specification:'Adelle, Bold';text-align:center;text-anchor:middle;fill:#333333;stroke-width:0.0821062"
         aria-label="Code Review" />
      <path
         style="font-weight:bold;font-size:6.11427px;line-height:1.1;font-family:Adelle;-inkscape-font-specification:'Adelle, Bold';text-align:center;text-anchor:middle;fill:#333333;stroke-width:0.171964"
         d="m 19.257309,28.253693 -0.250685,0.02446 q -0.09783,0.0061 -0.09783,0.0856 v 1.314568 q -0.617542,0.293485 -1.583596,0.293485 -0.611427,0 -1.057769,-0.1712 -0.440228,-0.171199 -0.697027,-0.489141 -0.250685,-0.317942 -0.37297,-0.721484 -0.116172,-0.403542 -0.116172,-0.917141 0,-1.021083 0.58697,-1.650853 0.58697,-0.629769 1.705882,-0.629769 0.354627,0 0.733712,0.09171 0.385199,0.09171 0.648113,0.262913 v 1.155597 l -0.678684,-0.04891 -0.09171,-0.550284 q -0.02446,-0.103943 -0.09783,-0.122286 -0.281257,-0.07949 -0.562513,-0.07949 -0.58697,0 -0.923255,0.421885 -0.336285,0.41577 -0.336285,1.137254 0,0.770398 0.324056,1.192283 0.330171,0.41577 0.978284,0.41577 0.262913,0 0.507484,-0.0428 0.09783,-0.01834 0.09783,-0.110057 V 28.314834 H 17.29463 l 0.0856,-0.550285 h 1.877081 z m 2.830908,0.800969 0.226228,0.605313 q -0.641998,0.311828 -1.253425,0.311828 -0.837655,0 -1.210626,-0.452456 -0.37297,-0.45857 -0.37297,-1.235083 0,-0.794855 0.421884,-1.210625 0.427999,-0.421885 1.094455,-0.421885 0.635884,0 0.990512,0.360742 0.354627,0.354628 0.354627,1.118912 0,0.165085 -0.01223,0.409656 h -1.870967 q 0.04891,0.721484 0.721484,0.721484 0.348513,0 0.911026,-0.207886 z m -1.626396,-1.094454 h 0.972169 q -0.0061,-0.648113 -0.45857,-0.648113 -0.464685,0 -0.513599,0.648113 z m 4.218844,1.938224 h -1.999366 v -0.495256 l 0.275142,-0.03669 q 0.06114,-0.0061 0.07949,-0.03057 0.01834,-0.02446 0.01834,-0.09171 v -1.791481 q 0,-0.103943 -0.07949,-0.1284 l -0.330171,-0.116171 0.06726,-0.495256 h 1.076112 l 0.07337,0.489142 h 0.03669 q 0.354627,-0.550285 0.862112,-0.550285 0.336285,0 0.531941,0.05503 v 1.112797 l -0.733712,-0.02446 -0.06114,-0.324056 q -0.01223,-0.06726 -0.07948,-0.06726 -0.195657,0 -0.440228,0.213999 v 1.620282 q 0,0.07337 0.01223,0.09783 0.01834,0.01834 0.0856,0.02446 l 0.605312,0.04891 z m 2.892047,0 h -1.999366 v -0.495256 l 0.275142,-0.03669 q 0.06114,-0.0061 0.07949,-0.03057 0.01834,-0.02446 0.01834,-0.09171 v -1.791481 q 0,-0.103943 -0.07948,-0.1284 l -0.330171,-0.116171 0.06726,-0.495256 h 1.076112 l 0.07337,0.489142 h 0.03669 q 0.354627,-0.550285 0.862112,-0.550285 0.336285,0 0.531941,0.05503 v 1.112797 L 27.45044,27.795122 27.3893,27.471066 q -0.01223,-0.06726 -0.07948,-0.06726 -0.195657,0 -0.440228,0.213999 v 1.620282 q 0,0.07337 0.01223,0.09783 0.01834,0.01834 0.0856,0.02446 l 0.605312,0.04891 z m 2.054393,-4.622389 q 0.146743,0.134514 0.146743,0.397428 0,0.262914 -0.146743,0.409656 -0.146742,0.140628 -0.409656,0.140628 -0.262914,0 -0.409656,-0.140628 -0.140628,-0.146742 -0.140628,-0.409656 0,-0.262914 0.140628,-0.397428 0.146742,-0.140628 0.409656,-0.140628 0.269028,0 0.409656,0.140628 z m 0.54417,4.622389 h -1.742567 v -0.483028 l 0.311828,-0.0428 q 0.06114,-0.0061 0.07949,-0.03057 0.01834,-0.02446 0.01834,-0.09171 v -1.797595 q 0,-0.103943 -0.07948,-0.1284 l -0.330171,-0.116171 0.06726,-0.495256 h 1.265654 v 2.537422 q 0,0.07337 0.01223,0.09783 0.01834,0.01834 0.0856,0.02446 l 0.311828,0.0428 z m 2.427365,-0.709256 0.165085,0.538056 q -0.50137,0.244571 -0.996626,0.244571 -0.538056,0 -0.770398,-0.232342 -0.232342,-0.232343 -0.232342,-0.752055 v -1.601939 q 0,-0.06114 -0.04891,-0.06114 H 30.28745 v -0.54417 q 0.403542,-0.0428 0.58697,-0.269028 0.183428,-0.226228 0.232342,-0.727598 h 0.580856 v 0.868226 q 0,0.06114 0.04891,0.06114 h 0.862112 v 0.611427 h -0.911026 v 1.461311 q 0,0.281256 0.0856,0.391313 0.0856,0.110057 0.33017,0.110057 0.232342,0 0.495256,-0.09783 z"
         id="text6"
         aria-label="Gerrit" />
    </g>
    <g
       id="g10119"
       transform="matrix(0.04230327,-0.00537685,0.00537685,0.04230327,-100.944,114.02337)">
      <path
         id="path4130"
         d="m 3378.9965,-2206.2972 c 0,0 13.4039,-8.8398 27.0022,-17.1718 13.5984,-8.3319 22.2322,-21.276 22.2322,-21.276 l 34.2799,28.1467 c 0,0 -16.0641,15.553 -24.7742,21.6893 -3.709,2.6129 -10.9463,9.1577 -10.9463,9.1577 0,0 -14.3617,-10.0769 -22.3623,-13.5225 -8.0773,-3.4786 -25.4315,-7.0234 -25.4315,-7.0234 z"
         style="fill:#f4f4f4;fill-opacity:1;stroke:#000000;stroke-width:2;stroke-linecap:butt;stroke-linejoin:miter;stroke-miterlimit:4;stroke-dasharray:none;stroke-opacity:1" />
      <g
         id="path4185"
         style="opacity:1;fill:#999999;fill-opacity:1">
        <path
           style="baseline-shift:baseline;display:inline;overflow:visible;vector-effect:none;fill:#999999;fill-opacity:1;enable-background:accumulate;stop-color:#000000;stop-opacity:1"
           d="m 3414.7387,-2204.9828 c 0,0 8.2233,-5.8571 11.9326,-9.2622 3.8224,-3.5089 10.5596,-11.437 10.5596,-11.437"
           id="path272" />
        <path
           style="baseline-shift:baseline;display:inline;overflow:visible;vector-effect:none;fill:#999999;fill-opacity:1;enable-background:accumulate;stop-color:#000000;stop-opacity:1"
           d="m 3433.8105,-2228.5898 c 0,0 -6.8991,8.0291 -10.1757,11.0371 -3.1636,2.9041 -11.5,8.914 -11.5,8.914 l 5.209,7.3125 c 0,0 8.1082,-5.7052 12.3632,-9.6113 4.3682,-4.0099 10.9453,-11.8379 10.9453,-11.8379 z"
           id="path273" />
      </g>
      <path
         id="path3307"
         d="m 3247.6516,-2171.4037 c 0,0 4.3348,-19.2835 10.7071,-26.2701 7.4284,-8.1446 19.072,-14.1542 29.3495,-15.24 27.8177,-2.9386 63.2371,6.1908 63.2371,6.1908 0,0 -30.8042,0.7262 -45.6022,4.5134 -5.1922,1.3289 -14.7941,6.2977 -14.7941,6.2977 0,0 -16.1166,0.8374 -29.8971,12.0927 -13.7804,11.2552 -3.0344,9.7831 -3.0344,9.7831"
         style="fill:#f4f4f4;fill-opacity:1;stroke:#000000;stroke-width:2;stroke-linecap:butt;stroke-linejoin:miter;stroke-miterlimit:4;stroke-dasharray:none;stroke-opacity:1" />
      <path
         id="path3011"
         d="m 3332.9985,-2012.4352 -20.0742,24.9886 c 0,0 -16.3479,-5.082 -40.3255,4.9725 -23.9776,10.0546 -39.2193,26.4042 -39.2193,26.4042 l 7.8897,-0.7975 c 0,0 20.4818,-14.4371 31.9614,-17.1294 11.4796,-2.6923 23.6197,-2.8388 23.6197,-2.8388 0,0 -25.492,10.0264 -30.7497,12.3759 -6.2584,2.7968 -15.0874,9.199 -15.0874,9.199 l 10.4761,-0.2965 c 17.6867,-7.2528 41.3221,-16.0187 59.9685,-15.047 15.5919,1.1274 33.9405,16.7543 33.9405,16.7543 l -3.8165,-9.9895 c 0,0 -10.8307,-8.1932 -16.3866,-13.7491 -5.5558,-5.5558 17.5848,-25.8193 17.5848,-25.8193 -14.3098,-2.8351 -2.1172,-7.9424 -19.7815,-9.0274 z"
         style="fill:#aaaaaa;fill-opacity:1;stroke:#000000;stroke-width:2;stroke-linecap:butt;stroke-linejoin:miter;stroke-miterlimit:4;stroke-dasharray:none;stroke-opacity:1" />
      <path
         style="fill:#aaaaaa;fill-opacity:1;stroke:#000000;stroke-width:2;stroke-linecap:butt;stroke-linejoin:miter;stroke-miterlimit:4;stroke-dasharray:none;stroke-opacity:1"
         d="m 3397.9929,-1984.0461 -15.5774,33.0846 c 0,0 -14.4499,-2.2165 -39.5097,4.7139 -25.0597,6.9303 -44.9575,20.0476 -44.9575,20.0476 l 10.5706,1.822 c 0,0 19.7276,-11.1182 30.516,-14.1955 7.747,-2.2097 23.9934,-2.9008 23.9934,-2.9008 0,0 -20.2687,6.6869 -30.057,10.9033 -5.4067,2.329 -15.7817,7.9273 -15.7817,7.9273 l 10.8391,1.5269 c 0,0 31.056,-11.8625 47.4047,-13.3504 11.1103,-1.0112 11.8331,-2.962 33.324,3.1079 10.0509,2.8388 16.3928,6.252 16.3928,6.252 l -3.3122,-5.8696 c 0,0 -5.3909,-4.5711 -8.2712,-6.6111 -3.5982,-2.5484 -11.2202,-7.0059 -11.2202,-7.0059 l 15.4484,-30.858 c -13.3255,-5.9362 -2.8177,-3.6211 -19.8021,-8.5942 z"
         id="path3013" />
      <path
         id="path3014"
         d="m 3138.8926,-2124.2277 c 9.8375,-20.5358 27.6337,-38.9533 48.4705,-48.136 22.7321,-10.018 51.1582,-10.0879 74.4382,-3.5941 7.6944,6.5 10.3115,-17.1804 46.9059,-27.4208 36.5944,-10.2403 91.6429,-6.509 142.1505,22.7854 54.0494,31.3487 -23.7386,41.9213 -8.0812,94.4492 32.3844,113.578 -63.1345,101.5204 -63.1345,101.5204 0,0 -25.2539,-16.1625 -35.3554,-17.1726 -10.1015,-1.0102 -46.6429,-25.1251 -68.8662,-28.6607 -22.2234,-3.5355 -36.9003,18.6222 -107.991,-9.9282 -24.3178,-9.7661 -33.8401,-33.335 -33.8401,-33.335 0,0 -2.0102,-35.2405 5.3033,-50.5076 z"
         style="fill:#666666;fill-opacity:1;stroke:#000000;stroke-width:2;stroke-linecap:butt;stroke-linejoin:miter;stroke-miterlimit:4;stroke-dasharray:none;stroke-opacity:1" />
      <path
         id="path3028"
         d="m 3179.7636,-2035.4822 c 0,0 33.988,-7.9036 57.2215,-14.9746 23.2335,-7.0711 36.1637,-43.7474 71.519,-48.7981 35.3554,-5.0508 68.528,22.1624 80.6498,47.4162 12.1218,25.2539 50.6701,55.6193 50.6701,55.6193 0,0 1.0101,11.1117 -14.1422,18.1828 -15.1522,7.0711 -10.4989,7.6628 -10.4989,7.6628 0,0 -43.1103,-11.4139 -62.396,-21.4139 -19.2857,-10 -61.236,-23.044 -92.9377,-30.7963 -26.2653,-6.4228 -35.0334,2.5255 -80.0856,-12.8982 z"
         style="fill:#999999;fill-opacity:1;stroke:#000000;stroke-width:2;stroke-linecap:butt;stroke-linejoin:miter;stroke-miterlimit:4;stroke-dasharray:none;stroke-opacity:1" />
      <path
         id="path3009"
         d="m 3470.1209,-2002.8128 c 0,0 13.8937,99.0002 33.6829,157.8517 19.7893,58.8514 78.4464,180.4742 78.4464,180.4742 l 28.1031,-31.8521 -52.5625,-109.7203 60.5152,95.9016 26.0124,-35.7271 c 0,0 -70.663,-88.4878 -93.8954,-140.4597 -23.2324,-51.9718 -37.4945,-152.9082 -37.4945,-152.9082 z"
         style="fill:#666666;fill-opacity:1;stroke:#000000;stroke-width:2;stroke-linecap:butt;stroke-linejoin:miter;stroke-miterlimit:4;stroke-dasharray:none;stroke-opacity:1" />
      <path
         id="path3016"
         d="m 3359.2154,-2191.502 c 0,0 -40.7142,5 -57.1428,42.1428 -16.4286,37.1429 50.7143,115.7143 60.7143,132.1429 10,16.4286 24.2857,38.5714 24.2857,38.5714 0,0 47.6766,32.0335 82.9062,53.8444 32.6567,20.2179 65.2266,33.1109 65.2266,33.1109 0,0 1.1687,-0.4937 7.0265,-19.1963 -12.1218,-21.7183 -38.3216,-53.2543 -54.5036,-69.192 24.2792,14.1167 43.346,28.1254 60.1041,56.5482 0,0 4.9588,-21.3916 6.5659,-30.7894 -3.0357,-9.5763 -47.4771,-56.5685 -47.4771,-56.5685 20.5517,8.7613 33.7508,23.0255 50.0892,44.7732 0,0 3.3263,-21.5598 3.8366,-32.9472 -2.5253,-6.566 -33.7228,-35.0595 -33.7228,-35.0595 13.1654,6.6374 19.714,11.0661 34.4127,24.0476 0,0 -3.0357,-60.7142 -66.6072,-130.7142 -63.5714,-70 -135.7143,-50.7143 -135.7143,-50.7143 z"
         style="fill:#333333;fill-opacity:1;stroke:#000000;stroke-width:2;stroke-linecap:butt;stroke-linejoin:miter;stroke-miterlimit:4;stroke-dasharray:none;stroke-opacity:1" />
      <g
         transform="translate(2935.644,-2513.1499)"
         id="g3138">
        <path
           style="fill:#999999;fill-opacity:1;stroke:#000000;stroke-width:2;stroke-linecap:butt;stroke-linejoin:miter;stroke-miterlimit:4;stroke-dasharray:none;stroke-opacity:1"
           d="m 337.66259,394.0585 c 0,0 -28.86328,-30.61257 -60.78781,-25.80202 -31.92454,4.81054 -41.10831,33.67382 -39.79634,39.79633 1.31197,6.12252 13.557,11.80771 22.30345,15.74361 8.74644,3.9359 32.79917,-0.43732 45.48152,-6.55984 12.68235,-6.12251 32.79918,-23.17808 32.79918,-23.17808 z"
           id="path3022" />
        <path
           style="fill:#f4f4f4;fill-opacity:1;stroke:#000000;stroke-width:3;stroke-miterlimit:4"
           d="m 286.65383,372.49887 c 12.50235,2.18615 20.86528,14.09354 18.67912,26.59589 -2.18615,12.50234 -14.09354,20.86527 -26.59589,18.67911 -12.50235,-2.18616 -20.86528,-14.09354 -18.67912,-26.59588 z"
           id="path3024" />
        <circle
           style="fill:#000000;fill-opacity:1;stroke:none"
           id="path3026"
           transform="matrix(1.5694327,0,0,1.5694327,-85.566867,-233.30737)"
           cx="229.64285"
           cy="403.79074"
           r="8.2142859" />
      </g>
      <path
         style="fill:#aaaaaa;fill-opacity:1;stroke:#000000;stroke-width:2;stroke-linecap:butt;stroke-linejoin:miter;stroke-miterlimit:4;stroke-dasharray:none;stroke-opacity:1"
         d="m 3110.2692,-2103.8575 c -32.3249,20.7081 -31.4522,56.0845 -27.4116,60.6301 4.0406,4.5457 8.0812,1.0102 15.6574,-1.5152 7.5761,-2.5254 26.2639,-10.1015 42.4264,-11.1117 16.1624,-1.0101 21.2132,3.0305 23.7386,-0.505 2.5254,-3.5356 4.0406,-15.1523 3.0304,-25.7589 -1.0101,-10.6066 -1.0101,-23.2335 -7.071,-25.2538 -6.061,-2.0203 -38.2484,-5.0718 -50.3702,3.5145 z"
         id="path3296" />
      <path
         id="path3305"
         d="m 3251.1404,-2178.2729 c 0,0 12.1428,21.0714 67.1428,32.5 55,11.4286 125.7143,-38.2143 125.7143,-38.2143 l 38.7857,38.6429 c 0,0 -113.0714,25.6428 -150.2143,21 -37.1428,-4.6429 -81.4285,-50.3572 -81.4285,-50.3572"
         style="fill:#f4f4f4;fill-opacity:1;stroke:#000000;stroke-width:2;stroke-linecap:butt;stroke-linejoin:miter;stroke-miterlimit:4;stroke-dasharray:none;stroke-opacity:1" />
      <path
         id="path4099"
         d="m 3453.1169,-2166.1191 -30.2186,14.3667 6.8378,5.5184 29.9689,-14.0733 z"
         style="color:#000000;font-style:normal;font-variant:normal;font-weight:normal;font-stretch:normal;font-size:medium;line-height:normal;font-family:Sans;-inkscape-font-specification:Sans;text-indent:0;text-align:start;text-decoration:none;text-decoration-line:none;letter-spacing:normal;word-spacing:normal;text-transform:none;writing-mode:lr-tb;direction:ltr;baseline-shift:baseline;text-anchor:start;display:inline;overflow:visible;visibility:visible;fill:#999999;fill-opacity:1;fill-rule:nonzero;stroke:none;stroke-width:4;marker:none;enable-background:accumulate" />
      <path
         id="path3303"
         d="m 3154.8351,-2149.0637 c 0,0 -6.1891,7.2925 -8.7928,11.2888 -2.8625,4.3936 -7.4472,13.8569 -7.4472,13.8569 0,0 49.8667,-24.0831 67.6065,-30.2972 18.2787,-6.4028 54.803,-21.7873 54.803,-21.7873 0,0 -3.8451,-1.8876 -5.9103,-2.3872 -3.1018,-0.7503 -9.5343,-0.868 -9.5343,-0.868 0,0 -25.7837,-0.1235 -42.8032,6.1343 -17.0196,6.2579 -47.9217,24.0597 -47.9217,24.0597 z"
         style="fill:#f4f4f4;fill-opacity:1;stroke:#000000;stroke-width:2;stroke-linecap:butt;stroke-linejoin:miter;stroke-miterlimit:4;stroke-dasharray:none;stroke-opacity:1" />
      <path
         style="color:#000000;font-style:normal;font-variant:normal;font-weight:normal;font-stretch:normal;font-size:medium;line-height:normal;font-family:Sans;-inkscape-font-specification:Sans;text-indent:0;text-align:start;text-decoration:none;text-decoration-line:none;letter-spacing:normal;word-spacing:normal;text-transform:none;writing-mode:lr-tb;direction:ltr;baseline-shift:baseline;text-anchor:start;display:inline;overflow:visible;visibility:visible;fill:#999999;fill-opacity:1;fill-rule:nonzero;stroke:none;stroke-width:4;marker:none;enable-background:accumulate"
         d="m 3433.0379,-2169.2212 24.4739,22.8165 -8.1844,3.1976 -24.3243,-22.4616 z"
         id="path27241" />
    </g>
  </g>
</svg>
